<svg width="439" height="439" viewBox="0 0 439 439" fill="none" xmlns="http://www.w3.org/2000/svg">
<rect width="439" height="439" rx="100" fill="black"/>
<path d="M95.4904 172.054C95.1246 172.064 92.97 172.067 80.2826 172.034L78.491 172.03C65.1384 171.995 65.0014 171.995 65 172.008L65.0001 172.054L65.0007 172.12C65.0011 172.168 65.0018 172.22 65.0028 172.277C65.0048 172.391 65.0079 172.526 65.0129 172.68C65.0228 172.988 65.04 173.375 65.0694 173.835C65.1281 174.755 65.2359 175.972 65.4328 177.443C65.8263 180.382 66.5795 184.364 68.0235 189.04C70.9214 198.423 76.5985 210.577 87.6246 222.563C109.952 246.835 151.645 267.801 228.148 268L228.148 213.556C230.281 216.538 232.711 219.556 235.477 222.563C257.805 246.835 299.498 267.801 376 268V237.364C304.883 237.18 272.584 217.831 257.904 201.872C250.426 193.743 246.825 185.805 245.072 180.126C244.19 177.27 243.774 174.978 243.579 173.526C243.484 172.817 243.443 172.315 243.426 172.054H243.343C242.977 172.064 240.824 172.067 228.148 172.035V172.009H197.557V235.959C147.362 231.213 122.437 215.336 110.051 201.872C102.574 193.743 98.973 185.805 97.2192 180.126C96.3373 177.27 95.9212 174.978 95.7267 173.526C95.6319 172.817 95.5907 172.315 95.5736 172.054H95.4904Z" fill="white"/>
</svg>
